<?xml version="1.0" standalone="no"?>
<!DOCTYPE svg PUBLIC "-//W3C//DTD SVG 20010904//EN"
 "http://www.w3.org/TR/2001/REC-SVG-20010904/DTD/svg10.dtd">
<svg version="1.0" xmlns="http://www.w3.org/2000/svg"
 width="1024.000000pt" height="1024.000000pt" viewBox="0 0 1024.000000 1024.000000"
 preserveAspectRatio="xMidYMid meet">

<g transform="translate(0.000000,1024.000000) scale(0.100000,-0.100000)"
fill="#000000" stroke="none">
<path d="M6465 7029 c-355 -65 -718 -274 -1116 -641 -68 -64 -151 -144 -184
-179 -117 -125 -171 -187 -189 -214 -69 -105 -366 -402 -546 -546 -83 -66
-254 -189 -264 -189 -1 0 -43 -23 -92 -50 -121 -68 -268 -124 -394 -150 -236
-49 -500 2 -700 135 -445 296 -527 923 -175 1348 171 207 453 337 729 337 313
0 660 -153 1036 -457 147 -119 160 -131 309 -276 121 -118 106 -89 -27 55
-195 210 -379 372 -557 492 -199 134 -385 224 -563 273 -86 24 -115 27 -262
27 -166 0 -206 -6 -337 -50 -359 -119 -633 -446 -702 -838 -36 -199 7 -465
106 -659 100 -199 296 -397 490 -495 193 -99 452 -136 677 -96 334 58 749 305
1126 668 92 89 320 326 320 333 0 15 161 196 284 318 168 167 300 279 456 384
321 218 633 312 895 271 475 -75 797 -466 772 -938 -12 -233 -95 -425 -258
-596 -176 -186 -393 -284 -654 -294 -409 -15 -867 229 -1390 740 -49 49 -91
88 -93 88 -8 0 105 -126 208 -234 436 -453 915 -716 1304 -716 416 0 796 250
964 636 54 124 92 295 92 416 0 408 -247 811 -610 993 -90 45 -215 87 -314
104 -71 13 -270 13 -341 0z"/>
<path d="M4760 6800 c-8 -5 -28 -7 -45 -5 -21 3 -38 -2 -55 -16 -21 -17 -21
-20 -5 -14 24 8 23 8 54 6 21 -1 22 -3 10 -18 -8 -9 -33 -25 -56 -35 -30 -13
-40 -23 -36 -34 3 -9 -4 -24 -16 -35 -11 -11 -21 -22 -21 -25 0 -4 29 -40 64
-83 74 -88 256 -270 256 -256 0 5 16 -6 35 -25 20 -19 33 -40 31 -46 -2 -6 8
-23 23 -38 l27 -26 54 57 c30 32 40 45 23 28 -57 -50 -36 -10 27 55 34 33 58
65 55 70 -7 11 19 57 96 174 46 70 56 92 49 107 -6 10 -10 24 -10 33 0 13 3
13 28 0 15 -7 35 -14 45 -14 23 0 57 -18 57 -30 0 -5 -21 -11 -47 -13 l-48 -3
50 -2 50 -2 -89 -89 c-49 -50 -93 -88 -98 -85 -5 3 -7 0 -6 -7 2 -7 -4 -13
-12 -14 -8 0 -15 -7 -15 -15 0 -8 -6 -16 -12 -16 -7 -1 -17 -2 -23 -3 -5 0
-10 -6 -10 -12 0 -5 6 -7 13 -3 12 8 2 -8 -38 -56 -29 -36 -20 -28 111 95 64
61 124 114 133 119 9 5 45 34 81 65 36 30 67 56 69 58 7 5 -31 31 -52 37 -18
4 -18 4 -1 -15 17 -18 17 -20 -2 -34 -24 -18 -29 -18 -43 -1 -9 11 -8 15 5 20
9 4 14 9 11 13 -4 3 -13 1 -20 -5 -11 -9 -18 -7 -34 11 -11 12 -48 48 -81 80
l-61 57 -253 0 c-141 0 -260 -4 -268 -10z m35 -19 c-3 -11 -1 -22 5 -26 7 -4
9 -18 6 -30 -5 -19 -2 -22 13 -18 12 3 20 -2 24 -16 3 -12 0 -21 -6 -21 -7 0
-1 -6 12 -13 46 -23 37 -37 -22 -37 -61 0 -93 20 -81 49 3 9 10 32 16 51 10
37 29 80 35 80 3 0 2 -9 -2 -19z m215 13 c0 -3 -27 -42 -60 -86 -49 -67 -61
-77 -67 -62 -3 11 -16 31 -26 46 -17 23 -18 30 -7 43 11 13 10 15 -2 10 -8 -3
-21 1 -28 10 -10 11 -10 15 0 15 7 0 10 7 6 15 -4 13 9 15 89 15 52 0 95 -3
95 -6z m187 -17 c-21 -18 -24 -26 -15 -35 7 -7 18 -12 25 -12 19 0 16 -9 -12
-46 -20 -26 -30 -32 -45 -26 -19 7 -110 118 -110 135 0 4 42 7 93 7 l92 -1
-28 -22z m81 -2 c7 -14 12 -34 12 -44 0 -10 7 -35 15 -54 20 -48 16 -67 -26
-123 -19 -26 -41 -59 -49 -74 -30 -53 -75 -109 -92 -113 -11 -3 -15 0 -11 10
3 7 8 12 11 9 6 -7 82 88 82 103 0 36 -56 -23 -97 -103 -41 -79 -39 -34 5 100
l39 119 44 2 c81 3 96 5 76 10 -12 3 -16 10 -12 24 5 14 0 21 -17 28 -27 10
-41 4 -34 -15 3 -8 0 -11 -10 -7 -19 7 -18 9 14 57 34 50 45 76 32 76 -6 0
-10 5 -10 10 0 19 17 10 28 -15z m112 -97 c0 -20 -80 39 -90 66 -15 44 -14 44
40 -9 28 -27 50 -53 50 -57z m-645 28 c-16 -53 -18 -56 -48 -56 l-32 0 25 20
c14 11 28 20 33 20 4 0 7 5 7 11 0 6 -7 8 -16 5 -10 -4 -13 -2 -8 7 12 20 47
57 51 53 2 -2 -3 -29 -12 -60z m325 8 c0 -19 -28 -24 -34 -8 -3 9 -6 28 -6 42
l0 27 20 -25 c11 -14 20 -30 20 -36z m-52 -37 c-2 -35 -7 -43 -25 -45 -13 -2
-23 1 -23 7 0 6 -9 11 -20 11 -28 0 -25 10 17 59 30 36 38 40 45 27 5 -9 8
-35 6 -59z m96 -9 c13 -18 22 -36 20 -40 -3 -4 -27 -8 -55 -8 -56 0 -65 17
-27 57 28 30 32 29 62 -9z m-452 -85 c36 -33 39 -34 24 -10 -22 32 -14 35 21
7 14 -11 29 -18 33 -15 12 8 162 -223 154 -236 -4 -7 -3 -9 2 -6 5 3 10 -3 10
-14 0 -18 -3 -16 -20 8 -11 15 -77 87 -148 158 -116 118 -138 145 -123 145 3
0 24 -17 47 -37z m347 -27 c0 -28 3 -118 5 -201 3 -82 3 -144 0 -137 -3 6 -10
10 -15 7 -11 -7 -249 357 -249 380 0 3 58 4 129 3 l129 -1 1 -51z m125 7 c-8
-58 -32 -127 -33 -98 -1 17 -3 17 -11 5 -6 -10 -10 -11 -10 -2 0 6 -5 12 -11
12 -8 0 -10 -23 -7 -75 3 -41 4 -75 2 -75 -1 0 -10 7 -18 16 -13 12 -16 40
-16 140 l0 124 56 0 55 0 -7 -47z"/>
<path d="M5147 6733 c-4 -3 -7 -11 -7 -17 0 -6 5 -5 12 2 6 6 9 14 7 17 -3 3
-9 2 -12 -2z"/>
<path d="M4906 6555 c3 -22 8 -51 10 -65 l5 -25 -24 27 c-22 23 -26 25 -32 11
-4 -11 14 -46 50 -99 31 -45 62 -102 69 -126 29 -92 14 -13 -23 124 -45 163
-65 218 -55 153z"/>
<path d="M5330 6794 c0 -2 14 -11 31 -19 36 -19 52 -13 17 6 -24 14 -48 20
-48 13z"/>
<path d="M4552 6704 c-35 -27 -34 -44 1 -43 12 0 16 3 9 6 -9 3 -7 12 9 34 25
35 23 36 -19 3z"/>
<path d="M5421 6714 c0 -11 3 -14 6 -6 3 7 2 16 -1 19 -3 4 -6 -2 -5 -13z"/>
<path d="M4496 6642 c5 -5 45 -37 89 -72 l80 -63 -72 72 c-40 39 -81 71 -90
71 -10 0 -13 -3 -7 -8z"/>
<path d="M3170 3840 l0 -230 45 0 45 0 0 230 0 230 -45 0 -45 0 0 -230z"/>
<path d="M3510 3840 l0 -230 45 0 44 0 3 157 3 156 104 -156 104 -157 49 0 48
0 -2 228 -3 227 -42 3 -43 3 0 -150 c0 -83 -3 -151 -7 -150 -5 0 -52 68 -106
150 l-98 149 -49 0 -50 0 0 -230z"/>
<path d="M4160 3840 l0 -230 45 0 45 0 0 90 0 89 93 3 92 3 0 40 0 40 -92 3
-93 3 0 49 0 49 103 3 102 3 0 40 0 40 -147 3 -148 3 0 -231z"/>
<path d="M4680 3840 l0 -231 41 3 41 3 0 225 1 225 -42 3 -41 3 0 -231z"/>
<path d="M5017 4063 c-4 -3 -7 -107 -7 -230 l0 -223 45 0 45 0 0 155 c0 85 3
155 8 155 4 0 53 -70 110 -155 l102 -155 44 0 c39 0 45 3 48 23 2 12 2 115 0
230 l-3 207 -39 0 -40 0 0 -144 c0 -80 -4 -147 -8 -150 -4 -3 -52 62 -106 145
l-99 149 -47 0 c-26 0 -50 -3 -53 -7z"/>
<path d="M5673 4063 c-10 -3 -13 -59 -13 -229 l0 -224 45 0 45 0 0 230 0 230
-32 -1 c-18 0 -39 -3 -45 -6z"/>
<path d="M5960 4025 l0 -45 70 0 70 0 0 -185 0 -185 45 0 45 0 0 185 0 185 71
0 70 0 -3 43 -3 42 -182 3 -183 2 0 -45z"/>
<path d="M6504 4055 c3 -8 39 -71 81 -139 l75 -124 0 -91 0 -91 45 0 45 0 0
90 0 91 80 133 c44 73 80 136 80 140 0 4 -21 6 -47 4 l-48 -3 -54 -93 -54 -93
-30 47 c-16 26 -38 64 -49 85 -25 48 -32 53 -87 56 -35 3 -42 0 -37 -12z"/>
<path d="M3162 3358 c-23 -23 -14 -55 23 -77 45 -26 46 -44 0 -39 -36 4 -57
-15 -29 -26 81 -31 132 42 59 85 -45 27 -44 39 1 39 24 0 34 4 32 13 -6 16
-70 21 -86 5z"/>
<path d="M3362 3347 c-48 -51 -10 -137 61 -137 71 0 107 91 55 140 -31 28 -88
27 -116 -3z m96 -19 c7 -7 12 -24 12 -38 0 -48 -45 -67 -82 -33 -20 18 -23 36
-8 64 12 22 59 26 78 7z"/>
<path d="M3600 3290 c0 -64 3 -80 15 -80 10 0 15 10 15 29 0 26 4 30 32 33 43
4 48 26 6 30 -22 2 -34 9 -36 21 -3 14 4 17 32 17 25 0 36 4 36 15 0 11 -12
15 -50 15 l-50 0 0 -80z"/>
<path d="M3790 3355 c0 -8 9 -15 20 -15 18 0 20 -7 20 -65 0 -51 3 -65 15 -65
12 0 15 14 15 65 0 58 2 65 20 65 11 0 20 7 20 15 0 12 -13 15 -55 15 -42 0
-55 -3 -55 -15z"/>
<path d="M3996 3333 c9 -21 23 -58 31 -82 15 -41 17 -43 30 -25 8 10 16 29 20
42 8 33 18 27 37 -20 l17 -43 23 60 c39 102 40 107 20 103 -10 -2 -22 -19 -29
-43 l-13 -40 -17 43 c-20 46 -45 56 -45 18 0 -29 -9 -56 -19 -56 -5 0 -13 18
-20 40 -9 29 -17 40 -32 40 -19 0 -19 -1 -3 -37z"/>
<path d="M4306 3297 c-20 -43 -36 -80 -36 -83 0 -11 31 -2 36 11 4 8 18 15 34
15 16 0 30 -7 34 -15 7 -18 36 -20 35 -2 0 6 -15 44 -33 82 l-34 70 -36 -78z
m40 -24 c-10 -10 -19 5 -10 18 6 11 8 11 12 0 2 -7 1 -15 -2 -18z"/>
<path d="M4509 3365 c0 -3 0 -27 0 -55 0 -94 1 -100 16 -100 9 0 15 9 15 25 0
14 6 25 13 25 8 0 19 -11 25 -25 7 -15 20 -25 32 -25 21 0 21 1 3 30 -13 23
-15 32 -5 42 17 17 15 54 -4 72 -14 14 -93 23 -95 11z m76 -35 c8 -13 -13 -40
-31 -40 -8 0 -14 10 -14 25 0 18 5 25 19 25 11 0 23 -5 26 -10z"/>
<path d="M4720 3290 l0 -80 60 0 c47 0 60 3 60 15 0 11 -11 15 -40 15 -33 0
-40 3 -40 19 0 15 8 21 33 23 17 2 32 8 32 13 0 6 -15 11 -32 13 -47 5 -44 32
2 32 24 0 35 5 35 15 0 12 -13 15 -55 15 l-55 0 0 -80z"/>
<path d="M5076 3349 c-19 -28 -7 -53 35 -74 36 -19 29 -37 -14 -33 -17 2 -32
-2 -34 -9 -6 -17 44 -28 76 -17 38 14 36 62 -3 84 -42 23 -43 38 -4 42 44 4
42 22 -4 26 -28 2 -40 -2 -52 -19z"/>
<path d="M5282 3347 c-32 -34 -30 -89 4 -116 56 -44 134 -11 134 58 0 73 -89
110 -138 58z m98 -28 c25 -45 -12 -89 -60 -74 -48 15 -31 95 20 95 19 0 33 -7
40 -21z"/>
<path d="M5520 3290 l0 -80 55 0 c42 0 55 3 55 15 0 11 -11 15 -40 15 l-40 0
0 65 c0 51 -3 65 -15 65 -12 0 -15 -16 -15 -80z"/>
<path d="M5722 3304 c5 -73 20 -94 68 -94 48 0 63 21 68 94 4 61 3 66 -16 66
-19 0 -21 -7 -24 -62 -3 -53 -6 -63 -22 -66 -28 -6 -46 25 -46 80 0 38 -4 48
-16 48 -14 0 -16 -10 -12 -66z"/>
<path d="M5950 3355 c0 -8 9 -15 20 -15 18 0 20 -7 20 -65 0 -51 3 -65 15 -65
12 0 15 14 15 65 0 58 2 65 20 65 11 0 20 7 20 15 0 12 -13 15 -55 15 -42 0
-55 -3 -55 -15z"/>
<path d="M6160 3300 c0 -38 0 -73 -1 -77 0 -5 7 -9 15 -11 13 -3 16 10 16 77
0 65 -3 81 -15 81 -12 0 -15 -14 -15 -70z"/>
<path d="M6319 3360 c-29 -17 -43 -66 -29 -101 33 -79 160 -55 160 31 0 60
-77 101 -131 70z m91 -50 c11 -26 10 -33 -5 -50 -34 -38 -85 -20 -85 30 0 33
17 50 51 50 20 0 30 -7 39 -30z"/>
<path d="M6550 3290 c0 -63 3 -80 14 -80 10 0 16 14 18 45 l3 45 52 -45 c28
-25 54 -45 57 -45 3 0 6 36 6 80 0 73 -2 80 -19 80 -16 0 -20 -8 -23 -44 l-3
-45 -48 45 c-27 24 -50 44 -53 44 -2 0 -4 -36 -4 -80z"/>
<path d="M6811 3356 c-19 -23 -9 -58 23 -75 35 -20 31 -36 -8 -37 -38 0 -45
-21 -10 -30 42 -11 78 7 82 39 3 22 -3 31 -32 48 -46 27 -46 39 0 39 24 0 34
4 32 13 -7 18 -72 21 -87 3z"/>
</g>
</svg>
